<svg width="125" height="16" viewBox="0 0 125 16" fill="none" xmlns="http://www.w3.org/2000/svg">
<path d="M69.6422 6.75403L65.3907 10.276L66.6415 16L62.5105 12.542L58.1135 15.816L59.8123 10.156L55.8462 6.45605L61.0267 6.41602L62.9733 0.855103L64.4765 6.49109L69.6422 6.75403Z" fill="#FFC600"/>
<path d="M42.1913 6.75403L37.9398 10.276L39.1906 16L35.0596 12.542L30.6626 15.816L32.3613 10.156L28.3953 6.45605L33.5757 6.41602L35.5224 0.855103L37.0256 6.49109L42.1913 6.75403Z" fill="#FFC600"/>
<path d="M14.7423 6.75403L10.4908 10.276L11.7416 16L7.61061 12.542L3.21358 15.816L4.91237 10.156L0.946289 6.45605L6.12675 6.41602L8.07341 0.855103L9.5766 6.49109L14.7423 6.75403Z" fill="#FFC600"/>
<path d="M97.0916 6.75403L92.8402 10.276L94.091 16L89.96 12.542L85.563 15.816L87.2618 10.156L83.2957 6.45605L88.4762 6.41602L90.4228 0.855103L91.926 6.49109L97.0916 6.75403Z" fill="#FFC600"/>
<path d="M124.543 6.75403L120.291 10.276L121.542 16L117.411 12.542L113.014 15.816L114.713 10.156L110.747 6.45605L115.927 6.41602L117.874 0.855103L119.377 6.49109L124.543 6.75403Z" fill="#C1C8CE"/>
</svg>
